%TF.GenerationSoftware,KiCad,Pcbnew,(5.1.6)-1*%
%TF.CreationDate,2020-06-28T19:49:48+04:00*%
%TF.ProjectId,SmartHousePowerUARTRouter,536d6172-7448-46f7-9573-65506f776572,rev?*%
%TF.SameCoordinates,Original*%
%TF.FileFunction,Copper,L1,Top*%
%TF.FilePolarity,Positive*%
%FSLAX46Y46*%
G04 Gerber Fmt 4.6, Leading zero omitted, Abs format (unit mm)*
G04 Created by KiCad (PCBNEW (5.1.6)-1) date 2020-06-28 19:49:48*
%MOMM*%
%LPD*%
G01*
G04 APERTURE LIST*
%TA.AperFunction,ComponentPad*%
%ADD10C,2.000000*%
%TD*%
%TA.AperFunction,ComponentPad*%
%ADD11C,3.000000*%
%TD*%
%TA.AperFunction,ViaPad*%
%ADD12C,2.000000*%
%TD*%
%TA.AperFunction,Conductor*%
%ADD13C,1.000000*%
%TD*%
G04 APERTURE END LIST*
D10*
%TO.P,STM32_BLUEPILL1,1*%
%TO.N,Net-(STM32_BLUEPILL1-Pad1)*%
X273200000Y-112820000D03*
%TO.P,STM32_BLUEPILL1,2*%
%TO.N,Net-(P3-Pad2)*%
X273200000Y-110280000D03*
%TO.P,STM32_BLUEPILL1,3*%
%TO.N,Net-(P3-Pad1)*%
X273200000Y-107740000D03*
%TO.P,STM32_BLUEPILL1,4*%
%TO.N,Net-(STM32_BLUEPILL1-Pad4)*%
X273200000Y-105200000D03*
%TO.P,STM32_BLUEPILL1,5*%
%TO.N,Net-(STM32_BLUEPILL1-Pad5)*%
X273200000Y-102660000D03*
%TO.P,STM32_BLUEPILL1,6*%
%TO.N,Net-(STM32_BLUEPILL1-Pad6)*%
X273200000Y-100120000D03*
%TO.P,STM32_BLUEPILL1,7*%
%TO.N,Net-(STM32_BLUEPILL1-Pad7)*%
X273200000Y-97580000D03*
%TO.P,STM32_BLUEPILL1,8*%
%TO.N,Net-(STM32_BLUEPILL1-Pad8)*%
X273200000Y-95040000D03*
%TO.P,STM32_BLUEPILL1,9*%
%TO.N,Net-(STM32_BLUEPILL1-Pad9)*%
X273200000Y-92500000D03*
%TO.P,STM32_BLUEPILL1,10*%
%TO.N,Net-(STM32_BLUEPILL1-Pad10)*%
X273200000Y-89960000D03*
%TO.P,STM32_BLUEPILL1,11*%
%TO.N,Net-(STM32_BLUEPILL1-Pad11)*%
X273200000Y-87420000D03*
%TO.P,STM32_BLUEPILL1,12*%
%TO.N,Net-(STM32_BLUEPILL1-Pad12)*%
X273200000Y-84880000D03*
%TO.P,STM32_BLUEPILL1,13*%
%TO.N,Net-(STM32_BLUEPILL1-Pad13)*%
X273200000Y-82340000D03*
%TO.P,STM32_BLUEPILL1,14*%
%TO.N,Net-(P5-Pad1)*%
X273200000Y-79800000D03*
%TO.P,STM32_BLUEPILL1,15*%
%TO.N,Net-(P5-Pad2)*%
X273200000Y-77260000D03*
%TO.P,STM32_BLUEPILL1,16*%
%TO.N,Net-(STM32_BLUEPILL1-Pad16)*%
X273200000Y-74720000D03*
%TO.P,STM32_BLUEPILL1,17*%
%TO.N,Net-(STM32_BLUEPILL1-Pad17)*%
X273200000Y-72180000D03*
%TO.P,STM32_BLUEPILL1,18*%
%TO.N,Net-(STM32_BLUEPILL1-Pad18)*%
X273200000Y-69640000D03*
%TO.P,STM32_BLUEPILL1,19*%
%TO.N,Net-(STM32_BLUEPILL1-Pad19)*%
X273200000Y-67100000D03*
%TO.P,STM32_BLUEPILL1,20*%
%TO.N,Net-(STM32_BLUEPILL1-Pad20)*%
X273200000Y-64560000D03*
%TO.P,STM32_BLUEPILL1,21*%
%TO.N,Net-(STM32_BLUEPILL1-Pad21)*%
X257960000Y-112820000D03*
%TO.P,STM32_BLUEPILL1,22*%
%TO.N,Net-(STM32_BLUEPILL1-Pad22)*%
X257960000Y-110280000D03*
%TO.P,STM32_BLUEPILL1,23*%
%TO.N,Net-(STM32_BLUEPILL1-Pad23)*%
X257960000Y-107740000D03*
%TO.P,STM32_BLUEPILL1,24*%
%TO.N,Net-(STM32_BLUEPILL1-Pad24)*%
X257960000Y-105200000D03*
%TO.P,STM32_BLUEPILL1,25*%
%TO.N,Net-(STM32_BLUEPILL1-Pad25)*%
X257960000Y-102660000D03*
%TO.P,STM32_BLUEPILL1,26*%
%TO.N,Net-(STM32_BLUEPILL1-Pad26)*%
X257960000Y-100120000D03*
%TO.P,STM32_BLUEPILL1,27*%
%TO.N,Net-(P1-Pad2)*%
X257960000Y-97580000D03*
%TO.P,STM32_BLUEPILL1,28*%
%TO.N,Net-(P1-Pad1)*%
X257960000Y-95040000D03*
%TO.P,STM32_BLUEPILL1,29*%
%TO.N,Net-(STM32_BLUEPILL1-Pad29)*%
X257960000Y-92500000D03*
%TO.P,STM32_BLUEPILL1,30*%
%TO.N,Net-(STM32_BLUEPILL1-Pad30)*%
X257960000Y-89960000D03*
%TO.P,STM32_BLUEPILL1,31*%
%TO.N,Net-(STM32_BLUEPILL1-Pad31)*%
X257960000Y-87420000D03*
%TO.P,STM32_BLUEPILL1,32*%
%TO.N,Net-(STM32_BLUEPILL1-Pad32)*%
X257960000Y-84880000D03*
%TO.P,STM32_BLUEPILL1,33*%
%TO.N,Net-(STM32_BLUEPILL1-Pad33)*%
X257960000Y-82340000D03*
%TO.P,STM32_BLUEPILL1,34*%
%TO.N,Net-(STM32_BLUEPILL1-Pad34)*%
X257960000Y-79800000D03*
%TO.P,STM32_BLUEPILL1,35*%
%TO.N,Net-(P2-Pad2)*%
X257960000Y-77260000D03*
%TO.P,STM32_BLUEPILL1,36*%
%TO.N,Net-(P2-Pad1)*%
X257960000Y-74720000D03*
%TO.P,STM32_BLUEPILL1,37*%
%TO.N,Net-(STM32_BLUEPILL1-Pad37)*%
X257960000Y-72180000D03*
%TO.P,STM32_BLUEPILL1,38*%
%TO.N,Net-(STM32_BLUEPILL1-Pad38)*%
X257960000Y-69640000D03*
%TO.P,STM32_BLUEPILL1,39*%
%TO.N,Net-(STM32_BLUEPILL1-Pad39)*%
X257960000Y-67100000D03*
%TO.P,STM32_BLUEPILL1,40*%
%TO.N,Net-(STM32_BLUEPILL1-Pad40)*%
X257960000Y-64560000D03*
%TD*%
D11*
%TO.P,REF\u002A\u002A,1*%
%TO.N,N/C*%
X253000000Y-66000000D03*
%TD*%
%TO.P,REF\u002A\u002A,1*%
%TO.N,N/C*%
X275000000Y-117000000D03*
%TD*%
%TO.P,P1,1*%
%TO.N,Net-(P1-Pad1)*%
X261533000Y-57150000D03*
%TO.P,P1,2*%
%TO.N,Net-(P1-Pad2)*%
X266533000Y-57150000D03*
%TD*%
%TO.P,P2,1*%
%TO.N,Net-(P2-Pad1)*%
X251373000Y-57150000D03*
%TO.P,P2,2*%
%TO.N,Net-(P2-Pad2)*%
X256373000Y-57150000D03*
%TD*%
%TO.P,P3,1*%
%TO.N,Net-(P3-Pad1)*%
X276693000Y-57150000D03*
%TO.P,P3,2*%
%TO.N,Net-(P3-Pad2)*%
X271693000Y-57150000D03*
%TD*%
%TO.P,P4,1*%
%TO.N,Net-(P3-Pad1)*%
X261580000Y-127000000D03*
%TO.P,P4,2*%
%TO.N,Net-(P3-Pad2)*%
X256580000Y-127000000D03*
%TD*%
%TO.P,P5,1*%
%TO.N,Net-(P5-Pad1)*%
X271740000Y-127000000D03*
%TO.P,P5,2*%
%TO.N,Net-(P5-Pad2)*%
X266740000Y-127000000D03*
%TD*%
D12*
%TO.N,Net-(P3-Pad2)*%
X260096000Y-118872000D03*
X256540000Y-122428000D03*
%TO.N,Net-(P5-Pad1)*%
X269748000Y-115316000D03*
X269748000Y-105664000D03*
%TO.N,Net-(P5-Pad2)*%
X267208000Y-115316000D03*
X267208000Y-105664000D03*
%TD*%
D13*
%TO.N,Net-(P1-Pad2)*%
X257960000Y-97580000D02*
X261576000Y-97580000D01*
X266533000Y-70779000D02*
X266533000Y-57150000D01*
X265176000Y-72136000D02*
X266533000Y-70779000D01*
X265176000Y-93980000D02*
X265176000Y-72136000D01*
X261576000Y-97580000D02*
X265176000Y-93980000D01*
%TO.N,Net-(P1-Pad1)*%
X257960000Y-95040000D02*
X260560000Y-95040000D01*
X263144000Y-58761000D02*
X261533000Y-57150000D01*
X263144000Y-92456000D02*
X263144000Y-58761000D01*
X260560000Y-95040000D02*
X263144000Y-92456000D01*
%TO.N,Net-(P2-Pad1)*%
X257960000Y-74720000D02*
X257092000Y-74720000D01*
X257092000Y-74720000D02*
X256032000Y-73660000D01*
X256032000Y-73660000D02*
X256032000Y-61809000D01*
X256032000Y-61809000D02*
X251373000Y-57150000D01*
X251373000Y-57150000D02*
X251460000Y-57150000D01*
%TO.N,Net-(P2-Pad2)*%
X256373000Y-57150000D02*
X257302000Y-57150000D01*
X257302000Y-57150000D02*
X261620000Y-61468000D01*
X260052000Y-77260000D02*
X257960000Y-77260000D01*
X261620000Y-75692000D02*
X260052000Y-77260000D01*
X261620000Y-61468000D02*
X261620000Y-75692000D01*
X256373000Y-57150000D02*
X256540000Y-57150000D01*
%TO.N,Net-(P3-Pad1)*%
X273200000Y-107740000D02*
X267164000Y-107740000D01*
X267164000Y-107740000D02*
X256540000Y-118364000D01*
X276693000Y-57150000D02*
X276693000Y-55713000D01*
X276693000Y-55713000D02*
X274320000Y-53340000D01*
X261580000Y-123404000D02*
X261580000Y-127000000D01*
X251460000Y-113284000D02*
X256540000Y-118364000D01*
X256540000Y-118364000D02*
X261580000Y-123404000D01*
X251460000Y-83820000D02*
X251460000Y-113284000D01*
X248920000Y-81280000D02*
X251460000Y-83820000D01*
X248920000Y-54864000D02*
X248920000Y-81280000D01*
X250444000Y-53340000D02*
X248920000Y-54864000D01*
X274320000Y-53340000D02*
X250444000Y-53340000D01*
X276693000Y-57150000D02*
X276693000Y-57618000D01*
X261580000Y-127000000D02*
X261580000Y-127595000D01*
%TO.N,Net-(P3-Pad2)*%
X256580000Y-127000000D02*
X256580000Y-122468000D01*
X268688000Y-110280000D02*
X273200000Y-110280000D01*
X260096000Y-118872000D02*
X268688000Y-110280000D01*
X256580000Y-122468000D02*
X256540000Y-122428000D01*
X273200000Y-110280000D02*
X274784000Y-110280000D01*
X276860000Y-62317000D02*
X271693000Y-57150000D01*
X276860000Y-108204000D02*
X276860000Y-62317000D01*
X274784000Y-110280000D02*
X276860000Y-108204000D01*
%TO.N,Net-(P5-Pad1)*%
X271740000Y-127000000D02*
X271740000Y-125944000D01*
X271740000Y-125944000D02*
X269748000Y-123952000D01*
X269748000Y-123952000D02*
X269748000Y-115316000D01*
X269748000Y-105664000D02*
X269240000Y-105156000D01*
X269240000Y-105156000D02*
X269240000Y-82296000D01*
X269240000Y-82296000D02*
X271736000Y-79800000D01*
X271736000Y-79800000D02*
X273200000Y-79800000D01*
%TO.N,Net-(P5-Pad2)*%
X273200000Y-77260000D02*
X271228000Y-77260000D01*
X266740000Y-115784000D02*
X266740000Y-127000000D01*
X267208000Y-115316000D02*
X266740000Y-115784000D01*
X267208000Y-81280000D02*
X267208000Y-105664000D01*
X268224000Y-80264000D02*
X267208000Y-81280000D01*
X271228000Y-77260000D02*
X268224000Y-80264000D01*
%TD*%
M02*
