M48
; DRILL file {KiCad (5.1.6)-1} date 06/28/20 19:49:50
; FORMAT={-:-/ absolute / inch / decimal}
; #@! TF.CreationDate,2020-06-28T19:49:50+04:00
; #@! TF.GenerationSoftware,Kicad,Pcbnew,(5.1.6)-1
; #@! TF.FileFunction,Plated,1,2,PTH
FMAT,2
INCH
T1C0.0300
T2C0.0394
T3C0.1181
%
G90
G05
T1
X10.1559Y-2.5417
X10.1559Y-2.6417
X10.1559Y-2.7417
X10.1559Y-2.8417
X10.1559Y-2.9417
X10.1559Y-3.0417
X10.1559Y-3.1417
X10.1559Y-3.2417
X10.1559Y-3.3417
X10.1559Y-3.4417
X10.1559Y-3.5417
X10.1559Y-3.6417
X10.1559Y-3.7417
X10.1559Y-3.8417
X10.1559Y-3.9417
X10.1559Y-4.0417
X10.1559Y-4.1417
X10.1559Y-4.2417
X10.1559Y-4.3417
X10.1559Y-4.4417
X10.7559Y-2.5417
X10.7559Y-2.6417
X10.7559Y-2.7417
X10.7559Y-2.8417
X10.7559Y-2.9417
X10.7559Y-3.0417
X10.7559Y-3.1417
X10.7559Y-3.2417
X10.7559Y-3.3417
X10.7559Y-3.4417
X10.7559Y-3.5417
X10.7559Y-3.6417
X10.7559Y-3.7417
X10.7559Y-3.8417
X10.7559Y-3.9417
X10.7559Y-4.0417
X10.7559Y-4.1417
X10.7559Y-4.2417
X10.7559Y-4.3417
X10.7559Y-4.4417
T2
X10.1Y-4.82
X10.24Y-4.68
X10.52Y-4.16
X10.52Y-4.54
X10.62Y-4.16
X10.62Y-4.54
X10.6966Y-2.25
X10.8934Y-2.25
X10.5016Y-5.0
X10.6984Y-5.0
X10.2966Y-2.25
X10.4934Y-2.25
X10.1016Y-5.0
X10.2984Y-5.0
X9.8966Y-2.25
X10.0934Y-2.25
T3
X10.8268Y-4.6063
X9.9606Y-2.5984
T0
M30
