%TF.GenerationSoftware,KiCad,Pcbnew,(5.1.6)-1*%
%TF.CreationDate,2020-06-28T19:48:15+04:00*%
%TF.ProjectId,SmartHouseRelayGateController,536d6172-7448-46f7-9573-6552656c6179,rev?*%
%TF.SameCoordinates,Original*%
%TF.FileFunction,Copper,L1,Top*%
%TF.FilePolarity,Positive*%
%FSLAX46Y46*%
G04 Gerber Fmt 4.6, Leading zero omitted, Abs format (unit mm)*
G04 Created by KiCad (PCBNEW (5.1.6)-1) date 2020-06-28 19:48:15*
%MOMM*%
%LPD*%
G01*
G04 APERTURE LIST*
%TA.AperFunction,ComponentPad*%
%ADD10C,2.000000*%
%TD*%
%TA.AperFunction,ComponentPad*%
%ADD11C,3.000000*%
%TD*%
%TA.AperFunction,Conductor*%
%ADD12C,1.000000*%
%TD*%
G04 APERTURE END LIST*
D10*
%TO.P,U1,1*%
%TO.N,Net-(U1-Pad1)*%
X273200000Y-112820000D03*
%TO.P,U1,2*%
%TO.N,Net-(P1-Pad4)*%
X273200000Y-110280000D03*
%TO.P,U1,3*%
%TO.N,Net-(P1-Pad3)*%
X273200000Y-107740000D03*
%TO.P,U1,4*%
%TO.N,Net-(U1-Pad4)*%
X273200000Y-105200000D03*
%TO.P,U1,5*%
%TO.N,Net-(U1-Pad5)*%
X273200000Y-102660000D03*
%TO.P,U1,6*%
%TO.N,Net-(U1-Pad6)*%
X273200000Y-100120000D03*
%TO.P,U1,7*%
%TO.N,Net-(U1-Pad7)*%
X273200000Y-97580000D03*
%TO.P,U1,8*%
%TO.N,Net-(P3-Pad3)*%
X273200000Y-95040000D03*
%TO.P,U1,9*%
%TO.N,Net-(P3-Pad4)*%
X273200000Y-92500000D03*
%TO.P,U1,10*%
%TO.N,Net-(U1-Pad10)*%
X273200000Y-89960000D03*
%TO.P,U1,11*%
%TO.N,Net-(U1-Pad11)*%
X273200000Y-87420000D03*
%TO.P,U1,12*%
%TO.N,Net-(U1-Pad12)*%
X273200000Y-84880000D03*
%TO.P,U1,13*%
%TO.N,Net-(U1-Pad13)*%
X273200000Y-82340000D03*
%TO.P,U1,14*%
%TO.N,Net-(P1-Pad2)*%
X273200000Y-79800000D03*
%TO.P,U1,15*%
%TO.N,Net-(P1-Pad1)*%
X273200000Y-77260000D03*
%TO.P,U1,16*%
%TO.N,Net-(U1-Pad16)*%
X273200000Y-74720000D03*
%TO.P,U1,17*%
%TO.N,Net-(U1-Pad17)*%
X273200000Y-72180000D03*
%TO.P,U1,18*%
%TO.N,Net-(U1-Pad18)*%
X273200000Y-69640000D03*
%TO.P,U1,19*%
%TO.N,Net-(U1-Pad19)*%
X273200000Y-67100000D03*
%TO.P,U1,20*%
%TO.N,Net-(U1-Pad20)*%
X273200000Y-64560000D03*
%TO.P,U1,21*%
%TO.N,Net-(U1-Pad21)*%
X257960000Y-112820000D03*
%TO.P,U1,22*%
%TO.N,Net-(U1-Pad22)*%
X257960000Y-110280000D03*
%TO.P,U1,23*%
%TO.N,Net-(U1-Pad23)*%
X257960000Y-107740000D03*
%TO.P,U1,24*%
%TO.N,Net-(U1-Pad24)*%
X257960000Y-105200000D03*
%TO.P,U1,25*%
%TO.N,Net-(U1-Pad25)*%
X257960000Y-102660000D03*
%TO.P,U1,26*%
%TO.N,Net-(U1-Pad26)*%
X257960000Y-100120000D03*
%TO.P,U1,27*%
%TO.N,Net-(U1-Pad27)*%
X257960000Y-97580000D03*
%TO.P,U1,28*%
%TO.N,Net-(U1-Pad28)*%
X257960000Y-95040000D03*
%TO.P,U1,29*%
%TO.N,Net-(U1-Pad29)*%
X257960000Y-92500000D03*
%TO.P,U1,30*%
%TO.N,Net-(U1-Pad30)*%
X257960000Y-89960000D03*
%TO.P,U1,31*%
%TO.N,Net-(U1-Pad31)*%
X257960000Y-87420000D03*
%TO.P,U1,32*%
%TO.N,Net-(U1-Pad32)*%
X257960000Y-84880000D03*
%TO.P,U1,33*%
%TO.N,Net-(U1-Pad33)*%
X257960000Y-82340000D03*
%TO.P,U1,34*%
%TO.N,Net-(U1-Pad34)*%
X257960000Y-79800000D03*
%TO.P,U1,35*%
%TO.N,Net-(U1-Pad35)*%
X257960000Y-77260000D03*
%TO.P,U1,36*%
%TO.N,Net-(U1-Pad36)*%
X257960000Y-74720000D03*
%TO.P,U1,37*%
%TO.N,Net-(U1-Pad37)*%
X257960000Y-72180000D03*
%TO.P,U1,38*%
%TO.N,Net-(U1-Pad38)*%
X257960000Y-69640000D03*
%TO.P,U1,39*%
%TO.N,Net-(U1-Pad39)*%
X257960000Y-67100000D03*
%TO.P,U1,40*%
%TO.N,Net-(U1-Pad40)*%
X257960000Y-64560000D03*
%TD*%
D11*
%TO.P,REF\u002A\u002A,1*%
%TO.N,N/C*%
X253000000Y-66000000D03*
%TD*%
%TO.P,REF\u002A\u002A,1*%
%TO.N,N/C*%
X275000000Y-117000000D03*
%TD*%
%TO.P,P1,1*%
%TO.N,Net-(P1-Pad1)*%
X271620000Y-55880000D03*
%TO.P,P1,2*%
%TO.N,Net-(P1-Pad2)*%
X266620000Y-55880000D03*
%TO.P,P1,3*%
%TO.N,Net-(P1-Pad3)*%
X261620000Y-55880000D03*
%TO.P,P1,4*%
%TO.N,Net-(P1-Pad4)*%
X256620000Y-55880000D03*
%TD*%
%TO.P,P3,1*%
%TO.N,Net-(P1-Pad4)*%
X271620000Y-127000000D03*
%TO.P,P3,2*%
%TO.N,Net-(P1-Pad3)*%
X266620000Y-127000000D03*
%TO.P,P3,3*%
%TO.N,Net-(P3-Pad3)*%
X261620000Y-127000000D03*
%TO.P,P3,4*%
%TO.N,Net-(P3-Pad4)*%
X256620000Y-127000000D03*
%TD*%
D12*
%TO.N,Net-(P1-Pad2)*%
X273200000Y-79800000D02*
X270935000Y-79800000D01*
X266620000Y-75485000D02*
X266620000Y-55880000D01*
X270935000Y-79800000D02*
X266620000Y-75485000D01*
%TO.N,Net-(P1-Pad1)*%
X273200000Y-77260000D02*
X271570000Y-77260000D01*
X270510000Y-56990000D02*
X271620000Y-55880000D01*
X270510000Y-76200000D02*
X270510000Y-56990000D01*
X271570000Y-77260000D02*
X270510000Y-76200000D01*
%TO.N,Net-(P1-Pad4)*%
X271620000Y-127000000D02*
X271620000Y-127160000D01*
X271620000Y-127160000D02*
X268605000Y-130175000D01*
X253365000Y-55880000D02*
X256620000Y-55880000D01*
X249555000Y-59690000D02*
X253365000Y-55880000D01*
X249555000Y-70485000D02*
X249555000Y-59690000D01*
X252095000Y-73025000D02*
X249555000Y-70485000D01*
X252095000Y-127000000D02*
X252095000Y-73025000D01*
X255270000Y-130175000D02*
X252095000Y-127000000D01*
X268605000Y-130175000D02*
X255270000Y-130175000D01*
X273200000Y-110280000D02*
X272625000Y-110280000D01*
X272625000Y-110280000D02*
X271145000Y-111760000D01*
X271145000Y-111760000D02*
X271145000Y-126525000D01*
X271145000Y-126525000D02*
X271620000Y-127000000D01*
X256620000Y-55880000D02*
X256620000Y-55960000D01*
%TO.N,Net-(P1-Pad3)*%
X261620000Y-55880000D02*
X261620000Y-54610000D01*
X261620000Y-54610000D02*
X264160000Y-52070000D01*
X264160000Y-52070000D02*
X273685000Y-52070000D01*
X273685000Y-52070000D02*
X275590000Y-53975000D01*
X275590000Y-53975000D02*
X275590000Y-106680000D01*
X275590000Y-106680000D02*
X274530000Y-107740000D01*
X274530000Y-107740000D02*
X273200000Y-107740000D01*
X266620000Y-127000000D02*
X266620000Y-113110000D01*
X271990000Y-107740000D02*
X273200000Y-107740000D01*
X266620000Y-113110000D02*
X271990000Y-107740000D01*
X266620000Y-127000000D02*
X266620000Y-125810000D01*
%TO.N,Net-(P3-Pad3)*%
X261620000Y-127000000D02*
X261620000Y-115570000D01*
X271990000Y-95040000D02*
X273200000Y-95040000D01*
X270510000Y-96520000D02*
X271990000Y-95040000D01*
X270510000Y-106680000D02*
X270510000Y-96520000D01*
X261620000Y-115570000D02*
X270510000Y-106680000D01*
%TO.N,Net-(P3-Pad4)*%
X256620000Y-127000000D02*
X256620000Y-118030000D01*
X271355000Y-92500000D02*
X273200000Y-92500000D01*
X267970000Y-95885000D02*
X271355000Y-92500000D01*
X267970000Y-106680000D02*
X267970000Y-95885000D01*
X256620000Y-118030000D02*
X267970000Y-106680000D01*
%TD*%
M02*
