%TF.GenerationSoftware,KiCad,Pcbnew,(5.1.6)-1*%
%TF.CreationDate,2021-02-27T12:29:00+04:00*%
%TF.ProjectId,SmartHouseDINRelayGate,536d6172-7448-46f7-9573-6544494e5265,rev?*%
%TF.SameCoordinates,Original*%
%TF.FileFunction,Profile,NP*%
%FSLAX46Y46*%
G04 Gerber Fmt 4.6, Leading zero omitted, Abs format (unit mm)*
G04 Created by KiCad (PCBNEW (5.1.6)-1) date 2021-02-27 12:29:00*
%MOMM*%
%LPD*%
G01*
G04 APERTURE LIST*
%TA.AperFunction,Profile*%
%ADD10C,0.100000*%
%TD*%
G04 APERTURE END LIST*
D10*
X253000000Y-112500000D02*
G75*
G02*
X253000000Y-111000000I0J750000D01*
G01*
X271000000Y-102500000D02*
X271000000Y-109500000D01*
X270000000Y-103000000D02*
X270000000Y-109500000D01*
X253000000Y-112500000D02*
X268000000Y-112500000D01*
X268500000Y-111000000D02*
X254500000Y-111000000D01*
X270000000Y-109500000D02*
G75*
G02*
X268500000Y-111000000I-1500000J0D01*
G01*
X271000000Y-109500000D02*
G75*
G02*
X268000000Y-112500000I-3000000J0D01*
G01*
X277000000Y-64500000D02*
G75*
G02*
X277000000Y-67500000I0J-1500000D01*
G01*
X258000000Y-94500000D02*
X258000000Y-102000000D01*
X259000000Y-94500000D02*
X259000000Y-102000000D01*
X270000000Y-102000000D02*
X270000000Y-103000000D01*
X271000000Y-102000000D02*
X271000000Y-102500000D01*
X264000000Y-102000000D02*
G75*
G02*
X270000000Y-102000000I3000000J0D01*
G01*
X263000000Y-102000000D02*
G75*
G02*
X271000000Y-102000000I4000000J0D01*
G01*
X264000000Y-102000000D02*
G75*
G02*
X258000000Y-102000000I-3000000J0D01*
G01*
X263000000Y-102000000D02*
G75*
G02*
X259000000Y-102000000I-2000000J0D01*
G01*
X266000000Y-70000000D02*
X266500000Y-69500000D01*
X266000000Y-82500000D02*
X266000000Y-70000000D01*
X259000000Y-89500000D02*
X266000000Y-82500000D01*
X258000000Y-94500000D02*
X258000000Y-89000000D01*
X264500000Y-82500000D02*
X258000000Y-89000000D01*
X264500000Y-68500000D02*
X264500000Y-82500000D01*
X268500000Y-64500000D02*
X264500000Y-68500000D01*
X268500000Y-64500000D02*
X277000000Y-64500000D01*
X259000000Y-89500000D02*
X259000000Y-94500000D01*
X268500000Y-67500000D02*
X266500000Y-69500000D01*
X277000000Y-67500000D02*
X268500000Y-67500000D01*
X248500000Y-98000000D02*
X248500000Y-132500000D01*
X250500000Y-98000000D02*
X248500000Y-98000000D01*
X250500000Y-85000000D02*
X250500000Y-98000000D01*
X248500000Y-85000000D02*
X250500000Y-85000000D01*
X248500000Y-50500000D02*
X248500000Y-85000000D01*
X279500000Y-98000000D02*
X279500000Y-132500000D01*
X279500000Y-85000000D02*
X279500000Y-50500000D01*
X277500000Y-85000000D02*
X279500000Y-85000000D01*
X277500000Y-98000000D02*
X277500000Y-85000000D01*
X279500000Y-98000000D02*
X277500000Y-98000000D01*
X254500000Y-111000000D02*
X253000000Y-111000000D01*
X279500000Y-132500000D02*
X248500000Y-132500000D01*
X248500000Y-50500000D02*
X279500000Y-50500000D01*
M02*
