%TF.GenerationSoftware,KiCad,Pcbnew,(5.1.6)-1*%
%TF.CreationDate,2021-02-27T12:29:00+04:00*%
%TF.ProjectId,SmartHouseDINRelayGate,536d6172-7448-46f7-9573-6544494e5265,rev?*%
%TF.SameCoordinates,Original*%
%TF.FileFunction,Copper,L1,Top*%
%TF.FilePolarity,Positive*%
%FSLAX46Y46*%
G04 Gerber Fmt 4.6, Leading zero omitted, Abs format (unit mm)*
G04 Created by KiCad (PCBNEW (5.1.6)-1) date 2021-02-27 12:29:00*
%MOMM*%
%LPD*%
G01*
G04 APERTURE LIST*
%TA.AperFunction,ComponentPad*%
%ADD10R,1.800000X1.800000*%
%TD*%
%TA.AperFunction,ComponentPad*%
%ADD11O,1.800000X1.800000*%
%TD*%
%TA.AperFunction,ComponentPad*%
%ADD12C,3.000000*%
%TD*%
%TA.AperFunction,ComponentPad*%
%ADD13C,2.000000*%
%TD*%
%TA.AperFunction,ComponentPad*%
%ADD14C,2.400000*%
%TD*%
%TA.AperFunction,ComponentPad*%
%ADD15O,2.400000X2.400000*%
%TD*%
%TA.AperFunction,ComponentPad*%
%ADD16O,3.000000X2.000000*%
%TD*%
%TA.AperFunction,ComponentPad*%
%ADD17R,2.000000X3.000000*%
%TD*%
%TA.AperFunction,ComponentPad*%
%ADD18O,2.000000X3.000000*%
%TD*%
%TA.AperFunction,SMDPad,CuDef*%
%ADD19R,1.700000X2.000000*%
%TD*%
%TA.AperFunction,ComponentPad*%
%ADD20R,3.000000X2.000000*%
%TD*%
%TA.AperFunction,ComponentPad*%
%ADD21O,3.000000X1.905000*%
%TD*%
%TA.AperFunction,ComponentPad*%
%ADD22R,1.600000X2.400000*%
%TD*%
%TA.AperFunction,ComponentPad*%
%ADD23O,1.600000X2.400000*%
%TD*%
%TA.AperFunction,Conductor*%
%ADD24C,2.000000*%
%TD*%
%TA.AperFunction,Conductor*%
%ADD25C,1.000000*%
%TD*%
G04 APERTURE END LIST*
D10*
%TO.P,D2,1*%
%TO.N,Net-(D2-Pad1)*%
X264000000Y-62000000D03*
D11*
%TO.P,D2,2*%
%TO.N,Net-(D2-Pad2)*%
X256380000Y-62000000D03*
%TD*%
D12*
%TO.P,U3,3*%
%TO.N,Net-(Q1-Pad1)*%
X261000000Y-101900000D03*
D13*
%TO.P,U3,1*%
%TO.N,Net-(D2-Pad2)*%
X255000000Y-103900000D03*
%TO.P,U3,2*%
%TO.N,Net-(D2-Pad1)*%
X267000000Y-103900000D03*
D12*
%TO.P,U3,5*%
%TO.N,Net-(P2-Pad2)*%
X267000000Y-116100000D03*
%TO.P,U3,4*%
%TO.N,Net-(P2-Pad1)*%
X255000000Y-116100000D03*
%TD*%
D14*
%TO.P,R3,1*%
%TO.N,Net-(P2-Pad4)*%
X275000000Y-97500000D03*
D15*
%TO.P,R3,2*%
%TO.N,Net-(R3-Pad2)*%
X275000000Y-77180000D03*
%TD*%
D12*
%TO.P,REF\u002A\u002A,1*%
%TO.N,N/C*%
X253000000Y-66000000D03*
%TD*%
%TO.P,REF\u002A\u002A,1*%
%TO.N,N/C*%
X275000000Y-117000000D03*
%TD*%
%TO.P,P1,1*%
%TO.N,Net-(P1-Pad1)*%
X257000000Y-55000000D03*
%TO.P,P1,2*%
%TO.N,Net-(P1-Pad2)*%
X262000000Y-55000000D03*
%TO.P,P1,3*%
%TO.N,Net-(D2-Pad1)*%
X267000000Y-55000000D03*
%TO.P,P1,4*%
%TO.N,Net-(P1-Pad4)*%
X272000000Y-55000000D03*
%TD*%
D16*
%TO.P,Q2,2*%
%TO.N,Net-(Q2-Pad2)*%
X258040000Y-78960000D03*
D17*
%TO.P,Q2,1*%
%TO.N,Net-(P1-Pad4)*%
X255500000Y-81500000D03*
D18*
%TO.P,Q2,3*%
%TO.N,Net-(D2-Pad2)*%
X255500000Y-76420000D03*
%TD*%
D16*
%TO.P,Q4,2*%
%TO.N,Net-(D2-Pad2)*%
X256960000Y-70540000D03*
D17*
%TO.P,Q4,1*%
%TO.N,Net-(P1-Pad1)*%
X259500000Y-68000000D03*
D18*
%TO.P,Q4,3*%
%TO.N,Net-(Q2-Pad2)*%
X259500000Y-73080000D03*
%TD*%
D19*
%TO.P,R2,1*%
%TO.N,Net-(P1-Pad4)*%
X258750000Y-83000000D03*
%TO.P,R2,2*%
%TO.N,Net-(Q2-Pad2)*%
X258750000Y-79000000D03*
%TD*%
D12*
%TO.P,P2,1*%
%TO.N,Net-(P2-Pad1)*%
X252510000Y-126500000D03*
%TO.P,P2,2*%
%TO.N,Net-(P2-Pad2)*%
X260130000Y-126500000D03*
%TO.P,P2,3*%
%TO.N,Net-(P2-Pad3)*%
X267750000Y-126500000D03*
%TO.P,P2,4*%
%TO.N,Net-(P2-Pad4)*%
X275370000Y-126500000D03*
%TD*%
D20*
%TO.P,Q1,1*%
%TO.N,Net-(Q1-Pad1)*%
X270500000Y-85000000D03*
D21*
%TO.P,Q1,2*%
%TO.N,Net-(P2-Pad4)*%
X270500000Y-87540000D03*
%TO.P,Q1,3*%
%TO.N,Net-(Q1-Pad3)*%
X270500000Y-90080000D03*
%TD*%
%TO.P,R1,1*%
%TO.N,Net-(R1-Pad1)*%
%TA.AperFunction,SMDPad,CuDef*%
G36*
G01*
X267200000Y-58375000D02*
X267200000Y-59625000D01*
G75*
G02*
X266950000Y-59875000I-250000J0D01*
G01*
X266025000Y-59875000D01*
G75*
G02*
X265775000Y-59625000I0J250000D01*
G01*
X265775000Y-58375000D01*
G75*
G02*
X266025000Y-58125000I250000J0D01*
G01*
X266950000Y-58125000D01*
G75*
G02*
X267200000Y-58375000I0J-250000D01*
G01*
G37*
%TD.AperFunction*%
%TO.P,R1,2*%
%TO.N,Net-(P1-Pad2)*%
%TA.AperFunction,SMDPad,CuDef*%
G36*
G01*
X264225000Y-58375000D02*
X264225000Y-59625000D01*
G75*
G02*
X263975000Y-59875000I-250000J0D01*
G01*
X263050000Y-59875000D01*
G75*
G02*
X262800000Y-59625000I0J250000D01*
G01*
X262800000Y-58375000D01*
G75*
G02*
X263050000Y-58125000I250000J0D01*
G01*
X263975000Y-58125000D01*
G75*
G02*
X264225000Y-58375000I0J-250000D01*
G01*
G37*
%TD.AperFunction*%
%TD*%
D22*
%TO.P,U1,1*%
%TO.N,Net-(R1-Pad1)*%
X270000000Y-62000000D03*
D23*
%TO.P,U1,4*%
%TO.N,Net-(Q1-Pad3)*%
X275080000Y-69620000D03*
%TO.P,U1,2*%
%TO.N,Net-(P1-Pad4)*%
X272540000Y-62000000D03*
%TO.P,U1,5*%
%TO.N,Net-(U1-Pad5)*%
X272540000Y-69620000D03*
%TO.P,U1,3*%
%TO.N,Net-(U1-Pad3)*%
X275080000Y-62000000D03*
%TO.P,U1,6*%
%TO.N,Net-(R3-Pad2)*%
X270000000Y-69620000D03*
%TD*%
D24*
%TO.N,Net-(P2-Pad2)*%
X260130000Y-126500000D02*
X260130000Y-124120000D01*
X267000000Y-119500000D02*
X267000000Y-116100000D01*
X265000000Y-121500000D02*
X267000000Y-119500000D01*
X262750000Y-121500000D02*
X265000000Y-121500000D01*
X260130000Y-124120000D02*
X262750000Y-121500000D01*
D25*
%TO.N,Net-(P1-Pad2)*%
X262000000Y-57487500D02*
X263512500Y-59000000D01*
X262000000Y-55000000D02*
X262000000Y-57487500D01*
D24*
%TO.N,Net-(P2-Pad1)*%
X252510000Y-126500000D02*
X252510000Y-118590000D01*
X252510000Y-118590000D02*
X255000000Y-116100000D01*
D25*
%TO.N,Net-(Q2-Pad2)*%
X259500000Y-73080000D02*
X259500000Y-77500000D01*
X259500000Y-77500000D02*
X258040000Y-78960000D01*
X258710000Y-78960000D02*
X258750000Y-79000000D01*
X258750000Y-79000000D02*
X258040000Y-78960000D01*
%TO.N,Net-(D2-Pad1)*%
X267000000Y-103900000D02*
X267000000Y-104000000D01*
%TO.N,Net-(D2-Pad2)*%
X255000000Y-103900000D02*
X253900000Y-103900000D01*
X254080000Y-76420000D02*
X255500000Y-76420000D01*
X252000000Y-78500000D02*
X254080000Y-76420000D01*
X252000000Y-102000000D02*
X252000000Y-78500000D01*
X253900000Y-103900000D02*
X252000000Y-102000000D01*
X256960000Y-70540000D02*
X256960000Y-74960000D01*
X256960000Y-74960000D02*
X255500000Y-76420000D01*
X256960000Y-62580000D02*
X256380000Y-62000000D01*
X256960000Y-70540000D02*
X256960000Y-62580000D01*
%TO.N,Net-(P1-Pad1)*%
X257000000Y-55000000D02*
X257000000Y-57500000D01*
X259500000Y-60000000D02*
X259500000Y-68000000D01*
X257000000Y-57500000D02*
X259500000Y-60000000D01*
X257000000Y-55000000D02*
X257000000Y-55250000D01*
%TO.N,Net-(P1-Pad4)*%
X258750000Y-83000000D02*
X257000000Y-83000000D01*
X257000000Y-83000000D02*
X255500000Y-81500000D01*
X258250000Y-83500000D02*
X258750000Y-83000000D01*
X272000000Y-55000000D02*
X269000000Y-52000000D01*
X269000000Y-52000000D02*
X261000000Y-52000000D01*
X261000000Y-52000000D02*
X259500000Y-53500000D01*
X259500000Y-53500000D02*
X259500000Y-57500000D01*
X259500000Y-57500000D02*
X261500000Y-59500000D01*
X261500000Y-80250000D02*
X258750000Y-83000000D01*
X261500000Y-59500000D02*
X261500000Y-80250000D01*
X272000000Y-61460000D02*
X272540000Y-62000000D01*
X272000000Y-55000000D02*
X272000000Y-61460000D01*
D24*
%TO.N,Net-(P2-Pad4)*%
X270500000Y-87540000D02*
X268540000Y-87540000D01*
X268540000Y-87540000D02*
X267000000Y-89080000D01*
X267000000Y-89080000D02*
X267000000Y-93500000D01*
X271000000Y-97500000D02*
X275000000Y-97500000D01*
X267000000Y-93500000D02*
X271000000Y-97500000D01*
X275000000Y-97500000D02*
X275000000Y-109500000D01*
X275000000Y-109500000D02*
X271000000Y-113500000D01*
X271000000Y-122130000D02*
X275370000Y-126500000D01*
X271000000Y-113500000D02*
X271000000Y-122130000D01*
D25*
%TO.N,Net-(D2-Pad1)*%
X264000000Y-62000000D02*
X265000000Y-61000000D01*
X265000000Y-61000000D02*
X265000000Y-57000000D01*
X265000000Y-57000000D02*
X267000000Y-55000000D01*
X263500000Y-62500000D02*
X264000000Y-62000000D01*
X263500000Y-81500000D02*
X263500000Y-62500000D01*
X262900000Y-108000000D02*
X260000000Y-108000000D01*
X267000000Y-103900000D02*
X262900000Y-108000000D01*
X257000000Y-105000000D02*
X257000000Y-88000000D01*
X260000000Y-108000000D02*
X257000000Y-105000000D01*
X257000000Y-88000000D02*
X263500000Y-81500000D01*
D24*
%TO.N,Net-(Q1-Pad1)*%
X261000000Y-101900000D02*
X261000000Y-99500000D01*
X261000000Y-99500000D02*
X264000000Y-96500000D01*
X264000000Y-96500000D02*
X264000000Y-88500000D01*
X267500000Y-85000000D02*
X270500000Y-85000000D01*
X264000000Y-88500000D02*
X267500000Y-85000000D01*
D25*
%TO.N,Net-(Q1-Pad3)*%
X275080000Y-69620000D02*
X275080000Y-72080000D01*
X275080000Y-72080000D02*
X277500000Y-74500000D01*
X277500000Y-74500000D02*
X277500000Y-81500000D01*
X277500000Y-81500000D02*
X274000000Y-85000000D01*
X274000000Y-85000000D02*
X274000000Y-89500000D01*
X273420000Y-90080000D02*
X270500000Y-90080000D01*
X274000000Y-89500000D02*
X273420000Y-90080000D01*
%TO.N,Net-(R1-Pad1)*%
X267000000Y-59000000D02*
X270000000Y-62000000D01*
X266487500Y-59000000D02*
X267000000Y-59000000D01*
%TO.N,Net-(R3-Pad2)*%
X270000000Y-72180000D02*
X275000000Y-77180000D01*
X270000000Y-69620000D02*
X270000000Y-72180000D01*
%TD*%
M02*
