%TF.GenerationSoftware,KiCad,Pcbnew,(5.1.6)-1*%
%TF.CreationDate,2021-02-27T12:29:00+04:00*%
%TF.ProjectId,SmartHouseDINRelayGate,536d6172-7448-46f7-9573-6544494e5265,rev?*%
%TF.SameCoordinates,Original*%
%TF.FileFunction,Legend,Bot*%
%TF.FilePolarity,Positive*%
%FSLAX46Y46*%
G04 Gerber Fmt 4.6, Leading zero omitted, Abs format (unit mm)*
G04 Created by KiCad (PCBNEW (5.1.6)-1) date 2021-02-27 12:29:00*
%MOMM*%
%LPD*%
G01*
G04 APERTURE LIST*
%ADD10C,0.300000*%
%ADD11C,0.120000*%
%ADD12C,0.150000*%
G04 APERTURE END LIST*
D10*
X250750000Y-99357142D02*
X250750000Y-100071428D01*
X251178571Y-99214285D02*
X249678571Y-99714285D01*
X251178571Y-100214285D01*
X251107142Y-100642857D02*
X251178571Y-100857142D01*
X251178571Y-101214285D01*
X251107142Y-101357142D01*
X251035714Y-101428571D01*
X250892857Y-101500000D01*
X250750000Y-101500000D01*
X250607142Y-101428571D01*
X250535714Y-101357142D01*
X250464285Y-101214285D01*
X250392857Y-100928571D01*
X250321428Y-100785714D01*
X250250000Y-100714285D01*
X250107142Y-100642857D01*
X249964285Y-100642857D01*
X249821428Y-100714285D01*
X249750000Y-100785714D01*
X249678571Y-100928571D01*
X249678571Y-101285714D01*
X249750000Y-101500000D01*
X251178571Y-102142857D02*
X249678571Y-102142857D01*
X251178571Y-103000000D01*
X249678571Y-103000000D01*
X251178571Y-103714285D02*
X249678571Y-103714285D01*
X249678571Y-104285714D01*
X249750000Y-104428571D01*
X249821428Y-104500000D01*
X249964285Y-104571428D01*
X250178571Y-104571428D01*
X250321428Y-104500000D01*
X250392857Y-104428571D01*
X250464285Y-104285714D01*
X250464285Y-103714285D01*
X251178571Y-107214285D02*
X250464285Y-106714285D01*
X251178571Y-106357142D02*
X249678571Y-106357142D01*
X249678571Y-106928571D01*
X249750000Y-107071428D01*
X249821428Y-107142857D01*
X249964285Y-107214285D01*
X250178571Y-107214285D01*
X250321428Y-107142857D01*
X250392857Y-107071428D01*
X250464285Y-106928571D01*
X250464285Y-106357142D01*
X251107142Y-108428571D02*
X251178571Y-108285714D01*
X251178571Y-108000000D01*
X251107142Y-107857142D01*
X250964285Y-107785714D01*
X250392857Y-107785714D01*
X250250000Y-107857142D01*
X250178571Y-108000000D01*
X250178571Y-108285714D01*
X250250000Y-108428571D01*
X250392857Y-108500000D01*
X250535714Y-108500000D01*
X250678571Y-107785714D01*
X251178571Y-109357142D02*
X251107142Y-109214285D01*
X250964285Y-109142857D01*
X249678571Y-109142857D01*
X251178571Y-110571428D02*
X250392857Y-110571428D01*
X250250000Y-110500000D01*
X250178571Y-110357142D01*
X250178571Y-110071428D01*
X250250000Y-109928571D01*
X251107142Y-110571428D02*
X251178571Y-110428571D01*
X251178571Y-110071428D01*
X251107142Y-109928571D01*
X250964285Y-109857142D01*
X250821428Y-109857142D01*
X250678571Y-109928571D01*
X250607142Y-110071428D01*
X250607142Y-110428571D01*
X250535714Y-110571428D01*
X250178571Y-111142857D02*
X251178571Y-111500000D01*
X250178571Y-111857142D02*
X251178571Y-111500000D01*
X251535714Y-111357142D01*
X251607142Y-111285714D01*
X251678571Y-111142857D01*
X249750000Y-114357142D02*
X249678571Y-114214285D01*
X249678571Y-114000000D01*
X249750000Y-113785714D01*
X249892857Y-113642857D01*
X250035714Y-113571428D01*
X250321428Y-113500000D01*
X250535714Y-113500000D01*
X250821428Y-113571428D01*
X250964285Y-113642857D01*
X251107142Y-113785714D01*
X251178571Y-114000000D01*
X251178571Y-114142857D01*
X251107142Y-114357142D01*
X251035714Y-114428571D01*
X250535714Y-114428571D01*
X250535714Y-114142857D01*
X251178571Y-115714285D02*
X250392857Y-115714285D01*
X250250000Y-115642857D01*
X250178571Y-115500000D01*
X250178571Y-115214285D01*
X250250000Y-115071428D01*
X251107142Y-115714285D02*
X251178571Y-115571428D01*
X251178571Y-115214285D01*
X251107142Y-115071428D01*
X250964285Y-115000000D01*
X250821428Y-115000000D01*
X250678571Y-115071428D01*
X250607142Y-115214285D01*
X250607142Y-115571428D01*
X250535714Y-115714285D01*
X250178571Y-116214285D02*
X250178571Y-116785714D01*
X249678571Y-116428571D02*
X250964285Y-116428571D01*
X251107142Y-116500000D01*
X251178571Y-116642857D01*
X251178571Y-116785714D01*
X251107142Y-117857142D02*
X251178571Y-117714285D01*
X251178571Y-117428571D01*
X251107142Y-117285714D01*
X250964285Y-117214285D01*
X250392857Y-117214285D01*
X250250000Y-117285714D01*
X250178571Y-117428571D01*
X250178571Y-117714285D01*
X250250000Y-117857142D01*
X250392857Y-117928571D01*
X250535714Y-117928571D01*
X250678571Y-117214285D01*
X249678571Y-119571428D02*
X249678571Y-120500000D01*
X250250000Y-120000000D01*
X250250000Y-120214285D01*
X250321428Y-120357142D01*
X250392857Y-120428571D01*
X250535714Y-120500000D01*
X250892857Y-120500000D01*
X251035714Y-120428571D01*
X251107142Y-120357142D01*
X251178571Y-120214285D01*
X251178571Y-119785714D01*
X251107142Y-119642857D01*
X251035714Y-119571428D01*
X251035714Y-121142857D02*
X251107142Y-121214285D01*
X251178571Y-121142857D01*
X251107142Y-121071428D01*
X251035714Y-121142857D01*
X251178571Y-121142857D01*
X249678571Y-122142857D02*
X249678571Y-122285714D01*
X249750000Y-122428571D01*
X249821428Y-122500000D01*
X249964285Y-122571428D01*
X250250000Y-122642857D01*
X250607142Y-122642857D01*
X250892857Y-122571428D01*
X251035714Y-122500000D01*
X251107142Y-122428571D01*
X251178571Y-122285714D01*
X251178571Y-122142857D01*
X251107142Y-122000000D01*
X251035714Y-121928571D01*
X250892857Y-121857142D01*
X250607142Y-121785714D01*
X250250000Y-121785714D01*
X249964285Y-121857142D01*
X249821428Y-121928571D01*
X249750000Y-122000000D01*
X249678571Y-122142857D01*
X256571428Y-52071428D02*
X256571428Y-51071428D01*
X255928571Y-52071428D02*
X255928571Y-51285714D01*
X256000000Y-51142857D01*
X256142857Y-51071428D01*
X256357142Y-51071428D01*
X256500000Y-51142857D01*
X256571428Y-51214285D01*
X258357142Y-52642857D02*
X257071428Y-50714285D01*
X259500000Y-51071428D02*
X259500000Y-52571428D01*
X259500000Y-51142857D02*
X259357142Y-51071428D01*
X259071428Y-51071428D01*
X258928571Y-51142857D01*
X258857142Y-51214285D01*
X258785714Y-51357142D01*
X258785714Y-51785714D01*
X258857142Y-51928571D01*
X258928571Y-52000000D01*
X259071428Y-52071428D01*
X259357142Y-52071428D01*
X259500000Y-52000000D01*
X261285714Y-51142857D02*
X261428571Y-51071428D01*
X261714285Y-51071428D01*
X261857142Y-51142857D01*
X261928571Y-51285714D01*
X261928571Y-51357142D01*
X261857142Y-51500000D01*
X261714285Y-51571428D01*
X261500000Y-51571428D01*
X261357142Y-51642857D01*
X261285714Y-51785714D01*
X261285714Y-51857142D01*
X261357142Y-52000000D01*
X261500000Y-52071428D01*
X261714285Y-52071428D01*
X261857142Y-52000000D01*
X262428571Y-52071428D02*
X262714285Y-51071428D01*
X263000000Y-51785714D01*
X263285714Y-51071428D01*
X263571428Y-52071428D01*
X265285714Y-51642857D02*
X266428571Y-51642857D01*
X265857142Y-51071428D02*
X265857142Y-52214285D01*
X267857142Y-52571428D02*
X267142857Y-52571428D01*
X267071428Y-51857142D01*
X267142857Y-51928571D01*
X267285714Y-52000000D01*
X267642857Y-52000000D01*
X267785714Y-51928571D01*
X267857142Y-51857142D01*
X267928571Y-51714285D01*
X267928571Y-51357142D01*
X267857142Y-51214285D01*
X267785714Y-51142857D01*
X267642857Y-51071428D01*
X267285714Y-51071428D01*
X267142857Y-51142857D01*
X267071428Y-51214285D01*
X270357142Y-52071428D02*
X270357142Y-50857142D01*
X270285714Y-50714285D01*
X270214285Y-50642857D01*
X270071428Y-50571428D01*
X269857142Y-50571428D01*
X269714285Y-50642857D01*
X270357142Y-51142857D02*
X270214285Y-51071428D01*
X269928571Y-51071428D01*
X269785714Y-51142857D01*
X269714285Y-51214285D01*
X269642857Y-51357142D01*
X269642857Y-51785714D01*
X269714285Y-51928571D01*
X269785714Y-52000000D01*
X269928571Y-52071428D01*
X270214285Y-52071428D01*
X270357142Y-52000000D01*
X271071428Y-52071428D02*
X271071428Y-51071428D01*
X271071428Y-51928571D02*
X271142857Y-52000000D01*
X271285714Y-52071428D01*
X271500000Y-52071428D01*
X271642857Y-52000000D01*
X271714285Y-51857142D01*
X271714285Y-51071428D01*
X273071428Y-51071428D02*
X273071428Y-52571428D01*
X273071428Y-51142857D02*
X272928571Y-51071428D01*
X272642857Y-51071428D01*
X272500000Y-51142857D01*
X272428571Y-51214285D01*
X272357142Y-51357142D01*
X272357142Y-51785714D01*
X272428571Y-51928571D01*
X272500000Y-52000000D01*
X272642857Y-52071428D01*
X272928571Y-52071428D01*
X273071428Y-52000000D01*
X251294857Y-131504428D02*
X251294857Y-130290142D01*
X251366285Y-130147285D01*
X251437714Y-130075857D01*
X251580571Y-130004428D01*
X251866285Y-130004428D01*
X252009142Y-130075857D01*
X252080571Y-130147285D01*
X252152000Y-130290142D01*
X252152000Y-131504428D01*
X252866285Y-130004428D02*
X252866285Y-131504428D01*
X253437714Y-131504428D01*
X253580571Y-131433000D01*
X253652000Y-131361571D01*
X253723428Y-131218714D01*
X253723428Y-131004428D01*
X253652000Y-130861571D01*
X253580571Y-130790142D01*
X253437714Y-130718714D01*
X252866285Y-130718714D01*
X257794857Y-130004428D02*
X257794857Y-131504428D01*
X258152000Y-131504428D01*
X258366285Y-131433000D01*
X258509142Y-131290142D01*
X258580571Y-131147285D01*
X258652000Y-130861571D01*
X258652000Y-130647285D01*
X258580571Y-130361571D01*
X258509142Y-130218714D01*
X258366285Y-130075857D01*
X258152000Y-130004428D01*
X257794857Y-130004428D01*
X259580571Y-131504428D02*
X259866285Y-131504428D01*
X260009142Y-131433000D01*
X260152000Y-131290142D01*
X260223428Y-131004428D01*
X260223428Y-130504428D01*
X260152000Y-130218714D01*
X260009142Y-130075857D01*
X259866285Y-130004428D01*
X259580571Y-130004428D01*
X259437714Y-130075857D01*
X259294857Y-130218714D01*
X259223428Y-130504428D01*
X259223428Y-131004428D01*
X259294857Y-131290142D01*
X259437714Y-131433000D01*
X259580571Y-131504428D01*
X260723428Y-131504428D02*
X261080571Y-130004428D01*
X261366285Y-131075857D01*
X261652000Y-130004428D01*
X262009142Y-131504428D01*
X262580571Y-130004428D02*
X262580571Y-131504428D01*
X263437714Y-130004428D01*
X263437714Y-131504428D01*
X274437714Y-130004428D02*
X274437714Y-131504428D01*
X275152000Y-130004428D02*
X275152000Y-131504428D01*
X276009142Y-130004428D01*
X276009142Y-131504428D01*
D11*
%TO.C,D2*%
X262010000Y-60590000D02*
X262010000Y-63410000D01*
X257460000Y-62000000D02*
X257530000Y-62000000D01*
X262920000Y-62000000D02*
X262850000Y-62000000D01*
X257530000Y-60590000D02*
X262850000Y-60590000D01*
X257530000Y-63410000D02*
X257530000Y-60590000D01*
X262850000Y-63410000D02*
X257530000Y-63410000D01*
X262850000Y-60590000D02*
X262850000Y-63410000D01*
D12*
%TO.C,U3*%
X252750000Y-110000000D02*
X252750000Y-120000000D01*
X252750000Y-99900000D02*
X252750000Y-110000000D01*
X269250000Y-99900000D02*
X252750000Y-99900000D01*
X269250000Y-120100000D02*
X269250000Y-99900000D01*
X252750000Y-120100000D02*
X269250000Y-120100000D01*
X252750000Y-120000000D02*
X252750000Y-120100000D01*
D11*
%TO.C,R3*%
X275000000Y-78620000D02*
X275000000Y-81270000D01*
X275000000Y-96060000D02*
X275000000Y-93410000D01*
X277370000Y-81270000D02*
X277370000Y-93410000D01*
X272630000Y-81270000D02*
X277370000Y-81270000D01*
X272630000Y-93410000D02*
X272630000Y-81270000D01*
X277370000Y-93410000D02*
X272630000Y-93410000D01*
D12*
%TO.C,P1*%
X254500000Y-52500000D02*
X254500000Y-57500000D01*
X274500000Y-52500000D02*
X254500000Y-52500000D01*
X274500000Y-57500000D02*
X274500000Y-52500000D01*
X254500000Y-57500000D02*
X274500000Y-57500000D01*
D11*
%TO.C,Q2*%
X253700000Y-80660000D02*
X253700000Y-77260000D01*
X257649913Y-80410143D02*
G75*
G02*
X256850000Y-81210000I-2049913J1250143D01*
G01*
X257649913Y-77509857D02*
G75*
G03*
X256850000Y-76710000I-2049913J-1250143D01*
G01*
X254125632Y-81098623D02*
G75*
G02*
X253700000Y-80760000I1274368J2038623D01*
G01*
X254125632Y-76821377D02*
G75*
G03*
X253700000Y-77160000I1274368J-2038623D01*
G01*
%TO.C,Q4*%
X261300000Y-68840000D02*
X261300000Y-72240000D01*
X257350087Y-69089857D02*
G75*
G02*
X258150000Y-68290000I2049913J-1250143D01*
G01*
X257350087Y-71990143D02*
G75*
G03*
X258150000Y-72790000I2049913J1250143D01*
G01*
X260874368Y-68401377D02*
G75*
G02*
X261300000Y-68740000I-1274368J-2038623D01*
G01*
X260874368Y-72678623D02*
G75*
G03*
X261300000Y-72340000I-1274368J2038623D01*
G01*
D12*
%TO.C,P2*%
X275250000Y-124000000D02*
X255250000Y-124000000D01*
X255250000Y-129000000D02*
X275250000Y-129000000D01*
X249970000Y-123960000D02*
X255050000Y-123960000D01*
X255050000Y-129040000D02*
X249970000Y-129040000D01*
X279180000Y-123960000D02*
X275370000Y-123960000D01*
X279180000Y-129040000D02*
X279180000Y-123960000D01*
X275370000Y-129040000D02*
X279180000Y-129040000D01*
X248700000Y-123960000D02*
X249970000Y-123960000D01*
X248700000Y-129040000D02*
X248700000Y-123960000D01*
X249970000Y-129040000D02*
X248700000Y-129040000D01*
D11*
%TO.C,Q1*%
X267230000Y-89391000D02*
X268740000Y-89391000D01*
X267230000Y-85690000D02*
X268740000Y-85690000D01*
X268740000Y-82420000D02*
X268740000Y-92660000D01*
X267230000Y-92660000D02*
X271871000Y-92660000D01*
X267230000Y-82420000D02*
X271871000Y-82420000D01*
X271871000Y-82420000D02*
X271871000Y-92660000D01*
X267230000Y-82420000D02*
X267230000Y-92660000D01*
%TO.C,U1*%
X268670000Y-68060000D02*
X268670000Y-66810000D01*
X276410000Y-68060000D02*
X268670000Y-68060000D01*
X276410000Y-63560000D02*
X276410000Y-68060000D01*
X268670000Y-63560000D02*
X276410000Y-63560000D01*
X268670000Y-64810000D02*
X268670000Y-63560000D01*
X268670000Y-66810000D02*
G75*
G03*
X268670000Y-64810000I0J1000000D01*
G01*
%TO.C,D2*%
D12*
X260928095Y-60042380D02*
X260928095Y-59042380D01*
X260690000Y-59042380D01*
X260547142Y-59090000D01*
X260451904Y-59185238D01*
X260404285Y-59280476D01*
X260356666Y-59470952D01*
X260356666Y-59613809D01*
X260404285Y-59804285D01*
X260451904Y-59899523D01*
X260547142Y-59994761D01*
X260690000Y-60042380D01*
X260928095Y-60042380D01*
X259975714Y-59137619D02*
X259928095Y-59090000D01*
X259832857Y-59042380D01*
X259594761Y-59042380D01*
X259499523Y-59090000D01*
X259451904Y-59137619D01*
X259404285Y-59232857D01*
X259404285Y-59328095D01*
X259451904Y-59470952D01*
X260023333Y-60042380D01*
X259404285Y-60042380D01*
%TO.C,U3*%
X260952380Y-109238095D02*
X261761904Y-109238095D01*
X261857142Y-109285714D01*
X261904761Y-109333333D01*
X261952380Y-109428571D01*
X261952380Y-109619047D01*
X261904761Y-109714285D01*
X261857142Y-109761904D01*
X261761904Y-109809523D01*
X260952380Y-109809523D01*
X260952380Y-110190476D02*
X260952380Y-110809523D01*
X261333333Y-110476190D01*
X261333333Y-110619047D01*
X261380952Y-110714285D01*
X261428571Y-110761904D01*
X261523809Y-110809523D01*
X261761904Y-110809523D01*
X261857142Y-110761904D01*
X261904761Y-110714285D01*
X261952380Y-110619047D01*
X261952380Y-110333333D01*
X261904761Y-110238095D01*
X261857142Y-110190476D01*
%TO.C,R3*%
X278822380Y-87173333D02*
X278346190Y-86840000D01*
X278822380Y-86601904D02*
X277822380Y-86601904D01*
X277822380Y-86982857D01*
X277870000Y-87078095D01*
X277917619Y-87125714D01*
X278012857Y-87173333D01*
X278155714Y-87173333D01*
X278250952Y-87125714D01*
X278298571Y-87078095D01*
X278346190Y-86982857D01*
X278346190Y-86601904D01*
X277822380Y-87506666D02*
X277822380Y-88125714D01*
X278203333Y-87792380D01*
X278203333Y-87935238D01*
X278250952Y-88030476D01*
X278298571Y-88078095D01*
X278393809Y-88125714D01*
X278631904Y-88125714D01*
X278727142Y-88078095D01*
X278774761Y-88030476D01*
X278822380Y-87935238D01*
X278822380Y-87649523D01*
X278774761Y-87554285D01*
X278727142Y-87506666D01*
%TO.C,P1*%
X267738095Y-54952380D02*
X267738095Y-53952380D01*
X267357142Y-53952380D01*
X267261904Y-54000000D01*
X267214285Y-54047619D01*
X267166666Y-54142857D01*
X267166666Y-54285714D01*
X267214285Y-54380952D01*
X267261904Y-54428571D01*
X267357142Y-54476190D01*
X267738095Y-54476190D01*
X266214285Y-54952380D02*
X266785714Y-54952380D01*
X266500000Y-54952380D02*
X266500000Y-53952380D01*
X266595238Y-54095238D01*
X266690476Y-54190476D01*
X266785714Y-54238095D01*
%TO.C,Q2*%
X260877619Y-78864761D02*
X260830000Y-78769523D01*
X260734761Y-78674285D01*
X260591904Y-78531428D01*
X260544285Y-78436190D01*
X260544285Y-78340952D01*
X260782380Y-78388571D02*
X260734761Y-78293333D01*
X260639523Y-78198095D01*
X260449047Y-78150476D01*
X260115714Y-78150476D01*
X259925238Y-78198095D01*
X259830000Y-78293333D01*
X259782380Y-78388571D01*
X259782380Y-78579047D01*
X259830000Y-78674285D01*
X259925238Y-78769523D01*
X260115714Y-78817142D01*
X260449047Y-78817142D01*
X260639523Y-78769523D01*
X260734761Y-78674285D01*
X260782380Y-78579047D01*
X260782380Y-78388571D01*
X259877619Y-79198095D02*
X259830000Y-79245714D01*
X259782380Y-79340952D01*
X259782380Y-79579047D01*
X259830000Y-79674285D01*
X259877619Y-79721904D01*
X259972857Y-79769523D01*
X260068095Y-79769523D01*
X260210952Y-79721904D01*
X260782380Y-79150476D01*
X260782380Y-79769523D01*
%TO.C,Q4*%
X255217619Y-70444761D02*
X255170000Y-70349523D01*
X255074761Y-70254285D01*
X254931904Y-70111428D01*
X254884285Y-70016190D01*
X254884285Y-69920952D01*
X255122380Y-69968571D02*
X255074761Y-69873333D01*
X254979523Y-69778095D01*
X254789047Y-69730476D01*
X254455714Y-69730476D01*
X254265238Y-69778095D01*
X254170000Y-69873333D01*
X254122380Y-69968571D01*
X254122380Y-70159047D01*
X254170000Y-70254285D01*
X254265238Y-70349523D01*
X254455714Y-70397142D01*
X254789047Y-70397142D01*
X254979523Y-70349523D01*
X255074761Y-70254285D01*
X255122380Y-70159047D01*
X255122380Y-69968571D01*
X254455714Y-71254285D02*
X255122380Y-71254285D01*
X254074761Y-71016190D02*
X254789047Y-70778095D01*
X254789047Y-71397142D01*
%TO.C,P2*%
X268488095Y-126452380D02*
X268488095Y-125452380D01*
X268107142Y-125452380D01*
X268011904Y-125500000D01*
X267964285Y-125547619D01*
X267916666Y-125642857D01*
X267916666Y-125785714D01*
X267964285Y-125880952D01*
X268011904Y-125928571D01*
X268107142Y-125976190D01*
X268488095Y-125976190D01*
X267535714Y-125547619D02*
X267488095Y-125500000D01*
X267392857Y-125452380D01*
X267154761Y-125452380D01*
X267059523Y-125500000D01*
X267011904Y-125547619D01*
X266964285Y-125642857D01*
X266964285Y-125738095D01*
X267011904Y-125880952D01*
X267583333Y-126452380D01*
X266964285Y-126452380D01*
%TO.C,Q1*%
X266777619Y-87444761D02*
X266730000Y-87349523D01*
X266634761Y-87254285D01*
X266491904Y-87111428D01*
X266444285Y-87016190D01*
X266444285Y-86920952D01*
X266682380Y-86968571D02*
X266634761Y-86873333D01*
X266539523Y-86778095D01*
X266349047Y-86730476D01*
X266015714Y-86730476D01*
X265825238Y-86778095D01*
X265730000Y-86873333D01*
X265682380Y-86968571D01*
X265682380Y-87159047D01*
X265730000Y-87254285D01*
X265825238Y-87349523D01*
X266015714Y-87397142D01*
X266349047Y-87397142D01*
X266539523Y-87349523D01*
X266634761Y-87254285D01*
X266682380Y-87159047D01*
X266682380Y-86968571D01*
X266682380Y-88349523D02*
X266682380Y-87778095D01*
X266682380Y-88063809D02*
X265682380Y-88063809D01*
X265825238Y-87968571D01*
X265920476Y-87873333D01*
X265968095Y-87778095D01*
%TO.C,U1*%
X267122380Y-65048095D02*
X267931904Y-65048095D01*
X268027142Y-65095714D01*
X268074761Y-65143333D01*
X268122380Y-65238571D01*
X268122380Y-65429047D01*
X268074761Y-65524285D01*
X268027142Y-65571904D01*
X267931904Y-65619523D01*
X267122380Y-65619523D01*
X268122380Y-66619523D02*
X268122380Y-66048095D01*
X268122380Y-66333809D02*
X267122380Y-66333809D01*
X267265238Y-66238571D01*
X267360476Y-66143333D01*
X267408095Y-66048095D01*
%TD*%
M02*
