M48
; DRILL file {KiCad (5.1.6)-1} date 02/27/21 12:28:58
; FORMAT={-:-/ absolute / inch / decimal}
; #@! TF.CreationDate,2021-02-27T12:28:58+04:00
; #@! TF.GenerationSoftware,Kicad,Pcbnew,(5.1.6)-1
; #@! TF.FileFunction,Plated,1,2,PTH
FMAT,2
INCH
T1C0.0300
T2C0.0315
T3C0.0354
T4C0.0394
T5C0.0433
T6C0.0472
T7C0.1181
%
G90
G05
T1
X10.0394Y-4.0906
X10.5118Y-4.0906
T2
X10.6299Y-2.4409
X10.6299Y-2.7409
X10.7299Y-2.4409
X10.7299Y-2.7409
X10.8299Y-2.4409
X10.8299Y-2.7409
T3
X10.0937Y-2.4409
X10.3937Y-2.4409
T4
X10.1165Y-2.7772
X10.2165Y-2.6772
X10.2165Y-2.8772
X10.0394Y-4.5709
X10.2756Y-4.0118
X10.5118Y-4.5709
X9.9413Y-4.9803
X10.2413Y-4.9803
X10.5413Y-4.9803
X10.8413Y-4.9803
X10.0591Y-3.0087
X10.0591Y-3.2087
X10.1591Y-3.1087
X10.1181Y-2.1654
X10.315Y-2.1654
X10.5118Y-2.1654
X10.7087Y-2.1654
T5
X10.6496Y-3.3465
X10.6496Y-3.4465
X10.6496Y-3.5465
T6
X10.8268Y-3.0386
X10.8268Y-3.8386
T7
X9.9606Y-2.5984
X10.8268Y-4.6063
T0
M30
